<?xml version="1.0" encoding="utf-8"?>
<!-- Generator: Adobe Illustrator 24.0.3, SVG Export Plug-In . SVG Version: 6.00 Build 0)  -->
<svg version="1.1" xmlns="http://www.w3.org/2000/svg" xmlns:xlink="http://www.w3.org/1999/xlink" x="0px" y="0px"
	 viewBox="0 0 1000 1000" style="enable-background:new 0 0 1000 1000;" xml:space="preserve">
<style type="text/css">
	.st0{display:none;}
	.st1{display:inline;}
	.st2{clip-path:url(#SVGID_2_);fill:url(#SVGID_3_);}
	.st3{display:none;clip-path:url(#SVGID_2_);fill:url(#SVGID_4_);}
	.st4{clip-path:url(#SVGID_2_);}
	.st5{opacity:0.4;fill:url(#SVGID_5_);}
	.st6{fill:#EB7D06;}
	.st7{fill:url(#SVGID_6_);}
	.st8{fill:url(#SVGID_7_);}
	.st9{opacity:0.4;fill:url(#SVGID_8_);}
	.st10{fill:url(#SVGID_9_);}
	.st11{fill:url(#SVGID_10_);}
	.st12{display:none;fill:url(#SVGID_11_);}
	.st13{display:inline;fill:url(#SVGID_12_);}
	.st14{display:none;fill:url(#SVGID_13_);}
	.st15{display:inline;fill:url(#SVGID_14_);}
	.st16{display:inline;fill:url(#SVGID_15_);}
	.st17{display:inline;fill:url(#SVGID_16_);}
	.st18{display:inline;fill:url(#SVGID_17_);}
	.st19{clip-path:url(#SVGID_19_);fill:url(#SVGID_20_);}
	.st20{clip-path:url(#SVGID_19_);}
	.st21{fill:url(#SVGID_21_);}
	.st22{fill:url(#SVGID_22_);}
	.st23{fill:url(#SVGID_23_);}
	.st24{fill:url(#SVGID_24_);}
	.st25{display:inline;fill:url(#SVGID_25_);}
	.st26{display:none;fill:url(#SVGID_26_);}
	.st27{fill:url(#SVGID_27_);}
	.st28{display:inline;fill:url(#SVGID_28_);}
	.st29{display:inline;fill:url(#SVGID_29_);}
	.st30{display:inline;fill:url(#SVGID_30_);}
	.st31{clip-path:url(#SVGID_19_);fill:url(#SVGID_31_);}
	.st32{fill:url(#SVGID_32_);}
	.st33{display:inline;fill:url(#SVGID_33_);}
	.st34{display:inline;fill:#EB7D06;}
	.st35{fill:url(#SVGID_34_);}
	.st36{fill:url(#SVGID_35_);}
	.st37{display:inline;fill:url(#SVGID_36_);}
	.st38{display:inline;fill:url(#SVGID_37_);}
	.st39{fill:url(#SVGID_38_);}
	.st40{fill:#EE8E00;}
	.st41{fill:#FCC139;}
	.st42{fill:url(#SVGID_39_);}
	.st43{fill:url(#SVGID_40_);}
	.st44{fill:url(#SVGID_41_);}
</style>
<g id="_x33_" class="st0">
	<g class="st1">
		<defs>
			<rect id="SVGID_1_" x="-5" y="1064" width="1010" height="1010"/>
		</defs>
		<clipPath id="SVGID_2_">
			<use xlink:href="#SVGID_1_"  style="overflow:visible;"/>
		</clipPath>
		<linearGradient id="SVGID_3_" gradientUnits="userSpaceOnUse" x1="-5" y1="1569" x2="1005" y2="1569">
			<stop  offset="6.561280e-03" style="stop-color:#FCC139"/>
			<stop  offset="0.5121" style="stop-color:#F79F34"/>
			<stop  offset="1" style="stop-color:#F38230"/>
		</linearGradient>
		<rect x="-5" y="1064" class="st2" width="1010" height="1010"/>
		<linearGradient id="SVGID_4_" gradientUnits="userSpaceOnUse" x1="504.5" y1="1064" x2="504.5" y2="1380">
			<stop  offset="6.341940e-03" style="stop-color:#F8F8F8"/>
			<stop  offset="0.3389" style="stop-color:#E8E8E8"/>
			<stop  offset="0.9982" style="stop-color:#CBCBCB"/>
		</linearGradient>
		<path class="st3" d="M1021,1064H-12v154l124.5,57.8l247.2-14.2c0,0,157.3-18.6,380.3-48.6c0,0,141-19,209,72s72,95,72,95V1064z"/>
		<g class="st4">
			<g>
				<linearGradient id="SVGID_5_" gradientUnits="userSpaceOnUse" x1="-7.736" y1="1882.824" x2="389.8591" y2="1882.824">
					<stop  offset="6.561280e-03" style="stop-color:#FCC139"/>
					<stop  offset="0.5121" style="stop-color:#F79F34"/>
					<stop  offset="1" style="stop-color:#F38230"/>
				</linearGradient>
				<path class="st5" d="M317,2028.7c63,19.5,80.5,35.3,70,47.9H-7.7V1689h4.6C-27,1766.9,96,1960.1,317,2028.7z"/>
				<path class="st6" d="M-7.7,1689l-9.8-40.6c-5.8,81.9,35.8,404.6,327.3,381.6c3.1-0.2,6.1-0.5,9.1-0.7
					c19,5.9,33.7,11.5,44.7,16.8c-26.7,8.5-68,19.2-115.7,30.6H-7.7V1689z"/>
				<g>
					
						<linearGradient id="SVGID_6_" gradientUnits="userSpaceOnUse" x1="1003.594" y1="1920.7806" x2="791.6508" y2="1920.7806" gradientTransform="matrix(-1 0 0 1 995.858 0)">
						<stop  offset="6.780610e-03" style="stop-color:#7E7E7E"/>
						<stop  offset="7.284787e-02" style="stop-color:#7C7C7C"/>
						<stop  offset="0.9998" style="stop-color:#5F5F5F"/>
					</linearGradient>
					<path class="st7" d="M-7.7,1803.9c0,0,27.3,196.5,211.9,233.8c0,0-192.8-19.8-211.9-54V1803.9z"/>
				</g>
				<g>
					
						<linearGradient id="SVGID_7_" gradientUnits="userSpaceOnUse" x1="-20" y1="1935.6036" x2="1010.594" y2="1935.6036" gradientTransform="matrix(-1 0 0 1 995.858 0)">
						<stop  offset="6.780610e-03" style="stop-color:#7E7E7E"/>
						<stop  offset="7.284787e-02" style="stop-color:#7C7C7C"/>
						<stop  offset="0.9998" style="stop-color:#5F5F5F"/>
					</linearGradient>
					<path class="st8" d="M-14.7,2011.3c108.1,80,454.5,20.3,691.6-101.1c271.4-138.9,339-117.8,339-117.8l-4,287.7l-1026.6-0.4
						V2011.3z"/>
				</g>
				
					<linearGradient id="SVGID_8_" gradientUnits="userSpaceOnUse" x1="716.088" y1="1976.1902" x2="1003.594" y2="1976.1902" gradientTransform="matrix(-1 0 0 1 995.858 0)">
					<stop  offset="6.780610e-03" style="stop-color:#FCC139"/>
					<stop  offset="0.5122" style="stop-color:#F79F34"/>
					<stop  offset="1" style="stop-color:#F38230"/>
				</linearGradient>
				<path class="st9" d="M279.8,2034.8c-125.6,18.3-234.8,12.5-287.5-26.5v-100.7C53.3,2046.1,277.1,2034.9,279.8,2034.8z"/>
				
					<linearGradient id="SVGID_9_" gradientUnits="userSpaceOnUse" x1="716.088" y1="2016.0673" x2="1003.594" y2="2016.0673" gradientTransform="matrix(-1 0 0 1 995.858 0)">
					<stop  offset="6.999950e-03" style="stop-color:#F0A154"/>
					<stop  offset="0.4111" style="stop-color:#EF913E"/>
					<stop  offset="1" style="stop-color:#EE7C21"/>
				</linearGradient>
				<path class="st10" d="M276.5,2034.9c2-0.1,3.1-0.1,3.3-0.1c-125.6,18.3-234.8,12.5-287.5-26.5v-20.9
					C46.8,2025.4,153.1,2039.8,276.5,2034.9z"/>
				<g>
					
						<linearGradient id="SVGID_10_" gradientUnits="userSpaceOnUse" x1="579.7806" y1="2149.5698" x2="57.4831" y2="1711.3102" gradientTransform="matrix(-1 0 0 1 995.858 0)">
						<stop  offset="6.999950e-03" style="stop-color:#FF9D33"/>
						<stop  offset="0.6073" style="stop-color:#E16A30"/>
						<stop  offset="0.9998" style="stop-color:#D04D2E"/>
					</linearGradient>
					<path class="st11" d="M813.7,1901.5C645.2,1958,423.2,2038.4,315,2029.1c0,0,0.1,0,0.1,0c39-6.9,79.2-16,119.4-26.9
						c0.2,0,0.3-0.1,0.5-0.1c12.1-3.3,24.3-6.8,36.4-10.4c0.4-0.1,0.7-0.2,1.1-0.3c11.9-3.6,23.8-7.4,35.7-11.3
						c0.6-0.2,1.1-0.4,1.7-0.6c11.7-3.9,23.3-7.9,34.8-12.1c0.7-0.3,1.4-0.5,2.1-0.8c5.2-1.9,10.4-3.8,15.6-5.8
						c0.6-0.2,1.2-0.4,1.7-0.7c5.6-2.1,11.1-4.3,16.6-6.4c0.8-0.3,1.6-0.6,2.3-0.9c4.8-1.9,9.5-3.8,14.3-5.8c1-0.4,2-0.8,2.9-1.2
						c5.3-2.2,10.6-4.4,15.8-6.7c0.7-0.3,1.5-0.6,2.2-1c4.5-2,9-3.9,13.5-5.9c1.2-0.5,2.4-1.1,3.6-1.6c5.1-2.3,10.1-4.6,15.2-7
						c0.5-0.2,1.1-0.5,1.6-0.8c4.5-2.1,9-4.3,13.4-6.4c1.3-0.6,2.6-1.3,3.8-1.9c4.9-2.4,9.8-4.8,14.6-7.3
						c271.4-138.9,320-117.8,320-117.8v72.3C953.3,1853.8,922.5,1865,813.7,1901.5z"/>
				</g>
				<g>
					<path class="st6" d="M315,2029.1C315,2029.1,315,2029.1,315,2029.1C315,2029.1,315,2029.1,315,2029.1
						C315,2029.1,315,2029.1,315,2029.1C315,2029.1,315,2029.1,315,2029.1C315,2029.1,315,2029.1,315,2029.1z"/>
					<path class="st6" d="M815.6,1879.6c106.7-40.5,138.4-53.3,188.3-48.4v30.5c-50.5-7.9-81.4,3.3-190.2,39.8
						C645.2,1958,423.2,2038.3,315,2029.1C425.3,2033.6,647.1,1943.5,815.6,1879.6z"/>
				</g>
			</g>
			<linearGradient id="SVGID_11_" gradientUnits="userSpaceOnUse" x1="740.3141" y1="1323.4779" x2="1017" y2="1323.4779">
				<stop  offset="6.999950e-03" style="stop-color:#FF9D33"/>
				<stop  offset="0.6073" style="stop-color:#E16A30"/>
				<stop  offset="0.9998" style="stop-color:#D04D2E"/>
			</linearGradient>
			<path class="st12" d="M782.4,1210.5c-13.4,1.1-27.4,2.7-42.1,4.5c204.3-2.5,276.7,223,276.7,223v-114.2
				C986.5,1259.2,921.2,1198.7,782.4,1210.5z"/>
			<g class="st0">
				<linearGradient id="SVGID_12_" gradientUnits="userSpaceOnUse" x1="740.3141" y1="1289.5273" x2="1017" y2="1289.5273">
					<stop  offset="6.341940e-03" style="stop-color:#F8F8F8"/>
					<stop  offset="0.3389" style="stop-color:#E8E8E8"/>
					<stop  offset="0.9982" style="stop-color:#CBCBCB"/>
				</linearGradient>
				<path class="st13" d="M784.9,1215.1c134.8-7.6,205.1,88.3,232.1,157v-50.3c-30.5-64.5-95.8-125.1-234.6-113.3
					c-13.4,1.1-27.4,2.7-42.1,4.5c13.3-0.2,26,0.7,38.2,2.3C780.7,1215.3,782.8,1215.2,784.9,1215.1z"/>
			</g>
			<linearGradient id="SVGID_13_" gradientUnits="userSpaceOnUse" x1="436.4782" y1="1388.3096" x2="212.0786" y2="999.638">
				<stop  offset="6.341940e-03" style="stop-color:#F8F8F8"/>
				<stop  offset="0.3389" style="stop-color:#E8E8E8"/>
				<stop  offset="0.9982" style="stop-color:#CBCBCB"/>
			</linearGradient>
			<path class="st14" d="M-49,1248.9c103.1,118.9,535-4.4,789.1-35.9l0.1,0c0,0-245.7,34.1-461.4,45.9
				C45.3,1271.6-6.9,1150.4-6.9,1150.4H-49V1248.9z"/>
			<g class="st0">
				<linearGradient id="SVGID_14_" gradientUnits="userSpaceOnUse" x1="420.3011" y1="1385.6058" x2="235.4213" y2="1065.3846">
					<stop  offset="6.999950e-03" style="stop-color:#FF9D33"/>
					<stop  offset="0.6073" style="stop-color:#E16A30"/>
					<stop  offset="0.9998" style="stop-color:#D04D2E"/>
				</linearGradient>
				<path class="st15" d="M-49,1229.6v19.3c99.6,114.8,505.5,3.9,762.1-32.3c-31.8,4.2-89,11.4-158.2,18.9
					C318.9,1268.4,42.4,1311.4-49,1229.6z"/>
				<linearGradient id="SVGID_15_" gradientUnits="userSpaceOnUse" x1="740.1651" y1="1212.976" x2="740.1476" y2="1212.9457">
					<stop  offset="6.999950e-03" style="stop-color:#FF9D33"/>
					<stop  offset="0.6073" style="stop-color:#E16A30"/>
					<stop  offset="0.9998" style="stop-color:#D04D2E"/>
				</linearGradient>
				<path class="st16" d="M740.2,1213L740.2,1213C740.2,1213,740.1,1213,740.2,1213C740.1,1213,740.2,1213,740.2,1213z"/>
				<linearGradient id="SVGID_16_" gradientUnits="userSpaceOnUse" x1="728.3829" y1="1219.145" x2="723.4421" y2="1210.5873">
					<stop  offset="6.999950e-03" style="stop-color:#FF9D33"/>
					<stop  offset="0.6073" style="stop-color:#E16A30"/>
					<stop  offset="0.9998" style="stop-color:#D04D2E"/>
				</linearGradient>
				<path class="st17" d="M713.1,1216.6c13.5-1.8,22.4-3,25.7-3.4C730.4,1214.2,721.8,1215.3,713.1,1216.6z"/>
				<linearGradient id="SVGID_17_" gradientUnits="userSpaceOnUse" x1="739.5689" y1="1213.2931" x2="739.3063" y2="1212.8383">
					<stop  offset="6.999950e-03" style="stop-color:#FF9D33"/>
					<stop  offset="0.6073" style="stop-color:#E16A30"/>
					<stop  offset="0.9998" style="stop-color:#D04D2E"/>
				</linearGradient>
				<path class="st18" d="M740.1,1213L740.1,1213c-0.1,0-0.2,0-0.3,0c-0.2,0-0.6,0.1-1.1,0.1C739.2,1213.1,739.7,1213,740.1,1213
					L740.1,1213z"/>
			</g>
		</g>
	</g>
</g>
<g id="_x34_">
	<g id="_x31__2_">
		<defs>
			<rect id="SVGID_18_" x="-7" y="-7" width="1010" height="1010"/>
		</defs>
		<clipPath id="SVGID_19_">
			<use xlink:href="#SVGID_18_"  style="overflow:visible;"/>
		</clipPath>
		<radialGradient id="SVGID_20_" cx="495" cy="496" r="505" gradientUnits="userSpaceOnUse">
			<stop  offset="9.468859e-02" style="stop-color:#FCC139"/>
			<stop  offset="0.3196" style="stop-color:#FBB738"/>
			<stop  offset="0.7038" style="stop-color:#F79B34"/>
			<stop  offset="1" style="stop-color:#F38230"/>
		</radialGradient>
		<rect x="-10" y="-9" class="st19" width="1010" height="1010"/>
		<g class="st20">
			<g>
				
					<linearGradient id="SVGID_21_" gradientUnits="userSpaceOnUse" x1="730.4683" y1="1110.1051" x2="901.2301" y2="640.9411" gradientTransform="matrix(-1 0 0 -1 942.858 1110.3718)">
					<stop  offset="6.780610e-03" style="stop-color:#7E7E7E"/>
					<stop  offset="7.284787e-02" style="stop-color:#7C7C7C"/>
					<stop  offset="0.9998" style="stop-color:#5F5F5F"/>
				</linearGradient>
				<path class="st21" d="M314,110.7c63-19.5,80.5-35.3,70-47.9H-10.7v387.6h4.6C-30,372.5,93,179.2,314,110.7z"/>
				
					<linearGradient id="SVGID_22_" gradientUnits="userSpaceOnUse" x1="582.2511" y1="833.5062" x2="963.858" y2="833.5062" gradientTransform="matrix(-1 0 0 -1 942.858 1110.3718)">
					<stop  offset="6.780610e-03" style="stop-color:#7E7E7E"/>
					<stop  offset="7.284787e-02" style="stop-color:#7C7C7C"/>
					<stop  offset="0.9998" style="stop-color:#5F5F5F"/>
				</linearGradient>
				<path class="st22" d="M-10.7,450.4l-9.8,40.6c-5.8-81.9,35.8-404.6,327.3-381.6c3.1,0.2,6.1,0.5,9.1,0.7
					c19-5.9,33.7-11.5,44.7-16.8c-26.7-8.5-68-19.2-115.7-30.6H-10.7V450.4z"/>
				<g>
					
						<linearGradient id="SVGID_23_" gradientUnits="userSpaceOnUse" x1="953.594" y1="891.7806" x2="741.6507" y2="891.7806" gradientTransform="matrix(-1 0 0 -1 942.858 1110.3718)">
						<stop  offset="6.780610e-03" style="stop-color:#7E7E7E"/>
						<stop  offset="7.284787e-02" style="stop-color:#7C7C7C"/>
						<stop  offset="0.9998" style="stop-color:#5F5F5F"/>
					</linearGradient>
					<path class="st23" d="M-10.7,335.5c0,0,27.3-196.5,211.9-233.8c0,0-192.8,19.8-211.9,54V335.5z"/>
				</g>
				<g>
					
						<linearGradient id="SVGID_24_" gradientUnits="userSpaceOnUse" x1="1755.3867" y1="837.6138" x2="1490.3867" y2="837.6138" gradientTransform="matrix(1 0 0 -1 -752.3867 1110.3718)">
						<stop  offset="6.780610e-03" style="stop-color:#7E7E7E"/>
						<stop  offset="7.284787e-02" style="stop-color:#7C7C7C"/>
						<stop  offset="0.9998" style="stop-color:#5F5F5F"/>
					</linearGradient>
					<path class="st24" d="M1003,407.5c0,0-80.3-228.2-265-265.5c0,0,124-32,265,85.7V407.5z"/>
				</g>
				<g class="st0">
					
						<linearGradient id="SVGID_25_" gradientUnits="userSpaceOnUse" x1="-70" y1="906.6036" x2="960.594" y2="906.6036" gradientTransform="matrix(-1 0 0 -1 942.858 1110.3718)">
						<stop  offset="6.780610e-03" style="stop-color:#7E7E7E"/>
						<stop  offset="7.284787e-02" style="stop-color:#7C7C7C"/>
						<stop  offset="0.9998" style="stop-color:#5F5F5F"/>
					</linearGradient>
					<path class="st25" d="M-17.7,128.1c108.1-80,454.5-20.3,691.6,101.1c271.4,138.9,339,117.8,339,117.8l-4-287.7L-17.7,59.7
						V128.1z"/>
				</g>
				
					<linearGradient id="SVGID_26_" gradientUnits="userSpaceOnUse" x1="666.088" y1="947.1902" x2="953.594" y2="947.1902" gradientTransform="matrix(-1 0 0 -1 942.858 1110.3718)">
					<stop  offset="6.780610e-03" style="stop-color:#7E7E7E"/>
					<stop  offset="7.284787e-02" style="stop-color:#7C7C7C"/>
					<stop  offset="0.9998" style="stop-color:#5F5F5F"/>
				</linearGradient>
				<path class="st26" d="M276.8,104.6C151.2,86.3,41.9,92.1-10.7,131.1v100.7C50.3,93.3,274.1,104.5,276.8,104.6z"/>
				
					<linearGradient id="SVGID_27_" gradientUnits="userSpaceOnUse" x1="666.088" y1="987.0672" x2="953.594" y2="987.0672" gradientTransform="matrix(-1 0 0 -1 942.858 1110.3718)">
					<stop  offset="6.780610e-03" style="stop-color:#7E7E7E"/>
					<stop  offset="7.284787e-02" style="stop-color:#7C7C7C"/>
					<stop  offset="0.9998" style="stop-color:#5F5F5F"/>
				</linearGradient>
				<path class="st27" d="M273.5,104.5c2,0.1,3.1,0.1,3.3,0.1C151.2,86.3,41.9,92.1-10.7,131.1V152C43.8,114,150.1,99.5,273.5,104.5
					z"/>
				<g class="st0">
					
						<linearGradient id="SVGID_28_" gradientUnits="userSpaceOnUse" x1="529.7806" y1="1120.5699" x2="7.4831" y2="682.3102" gradientTransform="matrix(-1 0 0 -1 942.858 1110.3718)">
						<stop  offset="6.780610e-03" style="stop-color:#7E7E7E"/>
						<stop  offset="7.284787e-02" style="stop-color:#7C7C7C"/>
						<stop  offset="0.9998" style="stop-color:#5F5F5F"/>
					</linearGradient>
					<path class="st28" d="M810.7,237.9C642.2,181.4,420.2,101,312,110.3c0,0,0.1,0,0.1,0c39,6.9,79.2,16,119.4,26.9
						c0.2,0,0.3,0.1,0.5,0.1c12.1,3.3,24.3,6.8,36.4,10.4c0.4,0.1,0.7,0.2,1.1,0.3c11.9,3.6,23.8,7.4,35.7,11.3
						c0.6,0.2,1.1,0.4,1.7,0.6c11.7,3.9,23.3,7.9,34.8,12.1c0.7,0.3,1.4,0.5,2.1,0.8c5.2,1.9,10.4,3.8,15.6,5.8
						c0.6,0.2,1.2,0.4,1.7,0.7c5.6,2.1,11.1,4.3,16.6,6.4c0.8,0.3,1.6,0.6,2.3,0.9c4.8,1.9,9.5,3.8,14.3,5.8c1,0.4,2,0.8,2.9,1.2
						c5.3,2.2,10.6,4.4,15.8,6.7c0.7,0.3,1.5,0.6,2.2,1c4.5,2,9,3.9,13.5,5.9c1.2,0.5,2.4,1.1,3.6,1.6c5.1,2.3,10.1,4.6,15.2,7
						c0.5,0.2,1.1,0.5,1.6,0.8c4.5,2.1,9,4.3,13.4,6.4c1.3,0.6,2.6,1.3,3.8,1.9c4.9,2.4,9.8,4.8,14.6,7.3
						c271.4,138.9,320,117.8,320,117.8v-72.3C950.3,285.5,919.5,274.4,810.7,237.9z"/>
				</g>
				<g class="st0">
					
						<linearGradient id="SVGID_29_" gradientUnits="userSpaceOnUse" x1="630.8112" y1="1000.0705" x2="630.8856" y2="1000.0705" gradientTransform="matrix(-1 0 0 -1 942.858 1110.3718)">
						<stop  offset="6.780610e-03" style="stop-color:#7E7E7E"/>
						<stop  offset="7.284787e-02" style="stop-color:#7C7C7C"/>
						<stop  offset="0.9998" style="stop-color:#5F5F5F"/>
					</linearGradient>
					<path class="st29" d="M312,110.3C312,110.3,312,110.3,312,110.3C312,110.3,312,110.3,312,110.3C312,110.3,312,110.3,312,110.3
						C312,110.3,312,110.3,312,110.3C312,110.3,312,110.3,312,110.3z"/>
					
						<linearGradient id="SVGID_30_" gradientUnits="userSpaceOnUse" x1="-58" y1="901.017" x2="630.8197" y2="901.017" gradientTransform="matrix(-1 0 0 -1 942.858 1110.3718)">
						<stop  offset="6.780610e-03" style="stop-color:#7E7E7E"/>
						<stop  offset="7.284787e-02" style="stop-color:#7C7C7C"/>
						<stop  offset="0.9998" style="stop-color:#5F5F5F"/>
					</linearGradient>
					<path class="st30" d="M812.6,259.7c106.7,40.5,138.4,53.3,188.3,48.4v-30.5c-50.5,7.9-81.4-3.3-190.2-39.8
						C642.2,181.4,420.2,101,312,110.3C422.3,105.8,644.1,195.9,812.6,259.7z"/>
				</g>
			</g>
		</g>
		<linearGradient id="SVGID_31_" gradientUnits="userSpaceOnUse" x1="502.5" y1="309" x2="502.5" y2="-7">
			<stop  offset="6.999950e-03" style="stop-color:#FF9D33"/>
			<stop  offset="0.6073" style="stop-color:#E16A30"/>
			<stop  offset="0.9998" style="stop-color:#D04D2E"/>
		</linearGradient>
		<path class="st31" d="M1019-7H-14v154l124.5,57.8l247.2-14.2c0,0,157.3-18.6,380.3-48.6c0,0,141-19,209,72s72,95,72,95V-7z"/>
		<g class="st20">
			<linearGradient id="SVGID_32_" gradientUnits="userSpaceOnUse" x1="738" y1="250.4779" x2="1012" y2="250.4779">
				<stop  offset="6.999950e-03" style="stop-color:#FF9D33"/>
				<stop  offset="0.6073" style="stop-color:#E16A30"/>
				<stop  offset="0.9998" style="stop-color:#D04D2E"/>
			</linearGradient>
			<path class="st32" d="M777.4,137.5c-13.4,1.1-24.7,2.7-39.4,4.5c204.3-2.5,274,223,274,223V250.8
				C981.5,186.2,916.2,125.7,777.4,137.5z"/>
			<g class="st0">
				<linearGradient id="SVGID_33_" gradientUnits="userSpaceOnUse" x1="780.4683" y1="1068.1051" x2="951.2301" y2="598.9411">
					<stop  offset="6.780610e-03" style="stop-color:#FCC139"/>
					<stop  offset="0.5122" style="stop-color:#F79F34"/>
					<stop  offset="1" style="stop-color:#F38230"/>
				</linearGradient>
				<path class="st33" d="M678.8,957.7c-63,19.5-80.5,35.3-70,47.9h394.7V618H999C1022.8,695.9,899.9,889.1,678.8,957.7z"/>
				<path class="st34" d="M1003.6,618l9.8-40.6c5.8,81.9-35.8,404.6-327.3,381.6c-3.1-0.2-6.1-0.5-9.1-0.7
					c-19,5.9-33.7,11.5-44.7,16.8c26.7,8.5,68,19.2,115.7,30.6h255.7V618z"/>
				<g class="st1">
					<linearGradient id="SVGID_34_" gradientUnits="userSpaceOnUse" x1="1003.594" y1="849.7806" x2="791.6507" y2="849.7806">
						<stop  offset="6.341940e-03" style="stop-color:#F8F8F8"/>
						<stop  offset="0.3389" style="stop-color:#E8E8E8"/>
						<stop  offset="0.9982" style="stop-color:#CBCBCB"/>
					</linearGradient>
					<path class="st35" d="M1003.6,732.9c0,0-27.3,196.5-211.9,233.8c0,0,192.8-19.8,211.9-54V732.9z"/>
				</g>
				<g class="st1">
					<linearGradient id="SVGID_35_" gradientUnits="userSpaceOnUse" x1="-20" y1="864.6036" x2="1010.594" y2="864.6036">
						<stop  offset="6.780610e-03" style="stop-color:#7E7E7E"/>
						<stop  offset="7.284787e-02" style="stop-color:#7C7C7C"/>
						<stop  offset="0.9998" style="stop-color:#5F5F5F"/>
					</linearGradient>
					<path class="st36" d="M1010.6,940.3c-108.1,80-454.5,20.3-691.6-101.1C47.6,700.3-20,721.3-20,721.3l4,287.7l1026.6-0.4V940.3z
						"/>
				</g>
				<linearGradient id="SVGID_36_" gradientUnits="userSpaceOnUse" x1="716.088" y1="905.1902" x2="1003.594" y2="905.1902">
					<stop  offset="6.780610e-03" style="stop-color:#FCC139"/>
					<stop  offset="0.5122" style="stop-color:#F79F34"/>
					<stop  offset="1" style="stop-color:#F38230"/>
				</linearGradient>
				<path class="st37" d="M716.1,963.8c125.6,18.3,234.8,12.5,287.5-26.5V836.6C942.5,975.1,718.7,963.9,716.1,963.8z"/>
				<linearGradient id="SVGID_37_" gradientUnits="userSpaceOnUse" x1="716.088" y1="945.0672" x2="1003.594" y2="945.0672">
					<stop  offset="6.999950e-03" style="stop-color:#F0A154"/>
					<stop  offset="0.4111" style="stop-color:#EF913E"/>
					<stop  offset="1" style="stop-color:#EE7C21"/>
				</linearGradient>
				<path class="st38" d="M719.4,963.9c-2-0.1-3.1-0.1-3.3-0.1c125.6,18.3,234.8,12.5,287.5-26.5v-20.9
					C949,954.4,842.8,968.8,719.4,963.9z"/>
				<g class="st1">
					<linearGradient id="SVGID_38_" gradientUnits="userSpaceOnUse" x1="579.7806" y1="1078.5699" x2="57.4831" y2="640.3102">
						<stop  offset="6.341940e-03" style="stop-color:#F8F8F8"/>
						<stop  offset="0.3389" style="stop-color:#E8E8E8"/>
						<stop  offset="0.9982" style="stop-color:#CBCBCB"/>
					</linearGradient>
					<path class="st39" d="M182.2,830.5C350.6,887,572.7,967.4,680.9,958.1c0,0-0.1,0-0.1,0c-39-6.9-79.2-16-119.4-26.9
						c-0.2,0-0.3-0.1-0.5-0.1c-12.1-3.3-24.3-6.8-36.4-10.4c-0.4-0.1-0.7-0.2-1.1-0.3c-11.9-3.6-23.8-7.4-35.7-11.3
						c-0.6-0.2-1.1-0.4-1.7-0.6c-11.7-3.9-23.3-7.9-34.8-12.1c-0.7-0.3-1.4-0.5-2.1-0.8c-5.2-1.9-10.4-3.8-15.6-5.8
						c-0.6-0.2-1.2-0.4-1.7-0.7c-5.6-2.1-11.1-4.3-16.6-6.4c-0.8-0.3-1.6-0.6-2.3-0.9c-4.8-1.9-9.5-3.8-14.3-5.8
						c-1-0.4-2-0.8-2.9-1.2c-5.3-2.2-10.6-4.4-15.8-6.7c-0.7-0.3-1.5-0.6-2.2-1c-4.5-2-9-3.9-13.5-5.9c-1.2-0.5-2.4-1.1-3.6-1.6
						c-5.1-2.3-10.1-4.6-15.2-7c-0.5-0.2-1.1-0.5-1.6-0.8c-4.5-2.1-9-4.3-13.4-6.4c-1.3-0.6-2.6-1.3-3.8-1.9
						c-4.9-2.4-9.8-4.8-14.6-7.3C40.6,697.3-8,718.3-8,718.3v72.3C42.5,782.8,73.4,794,182.2,830.5z"/>
				</g>
				<g class="st1">
					<path class="st40" d="M680.8,958.1C680.8,958.1,680.9,958.1,680.8,958.1C680.9,958.1,680.9,958.1,680.8,958.1
						C680.9,958.1,680.8,958.1,680.8,958.1C680.8,958.1,680.8,958.1,680.8,958.1C680.8,958.1,680.8,958.1,680.8,958.1z"/>
					<path class="st40" d="M180.3,808.6C73.6,768.2,41.9,755.4-8,760.2v30.5c50.5-7.9,81.4,3.3,190.2,39.8
						C350.6,887,572.6,967.3,680.8,958.1C570.6,962.6,348.8,872.5,180.3,808.6z"/>
				</g>
			</g>
			<g>
				<path class="st41" d="M794,143c77.3,2.5,194,88.4,221,157.1v-50.3c-30.5-64.5-95.8-125.1-234.6-113.3
					c-13.4,1.1-27.7,3.7-42.4,5.5C772,142,763,142,794,143z"/>
			</g>
			<path class="st41" d="M-51,177.9c103.1,118.9,535-4.4,789.1-35.9l0.1,0c0,0-245.7,34.1-461.4,45.9C43.3,200.6-8.9,79.4-8.9,79.4
				H-51V177.9z"/>
			<g>
				<linearGradient id="SVGID_39_" gradientUnits="userSpaceOnUse" x1="417.4582" y1="315.5298" x2="233.2582" y2="-3.5139">
					<stop  offset="6.999950e-03" style="stop-color:#FF9D33"/>
					<stop  offset="0.6073" style="stop-color:#E16A30"/>
					<stop  offset="0.9998" style="stop-color:#D04D2E"/>
				</linearGradient>
				<path class="st42" d="M-51,160.6v21.6c99.6,128.6,505.5,4.3,762.1-36.2c-31.8,4.7-89,12.7-158.2,21.1
					C316.9,204.1,40.4,252.3-51,160.6z"/>
				<linearGradient id="SVGID_40_" gradientUnits="userSpaceOnUse" x1="738.1648" y1="141.9761" x2="738.1479" y2="141.947">
					<stop  offset="6.999950e-03" style="stop-color:#FF9D33"/>
					<stop  offset="0.6073" style="stop-color:#E16A30"/>
					<stop  offset="0.9998" style="stop-color:#D04D2E"/>
				</linearGradient>
				<path class="st43" d="M738.2,142L738.2,142C738.2,142,738.1,142,738.2,142C738.1,142,738.2,142,738.2,142z"/>
				<linearGradient id="SVGID_41_" gradientUnits="userSpaceOnUse" x1="737.5644" y1="142.2986" x2="737.3109" y2="141.8596">
					<stop  offset="6.999950e-03" style="stop-color:#FF9D33"/>
					<stop  offset="0.6073" style="stop-color:#E16A30"/>
					<stop  offset="0.9998" style="stop-color:#D04D2E"/>
				</linearGradient>
				<path class="st44" d="M738.1,142L738.1,142c-0.1,0-0.2,0-0.3,0c-0.2,0-0.6,0.1-1.1,0.2C737.2,142.1,737.7,142,738.1,142
					L738.1,142z"/>
			</g>
		</g>
	</g>
</g>
</svg>
